<svg xmlns="http://www.w3.org/2000/svg" width="48" height="48" viewBox="0 0 48 48" fill="none"><path d="M32 33.9993V37.9993H4V33.9993C4 33.9993 4 25.9993 18 25.9993C32 25.9993 32 33.9993 32 33.9993ZM25 14.9993C25 13.6148 24.5895 12.2615 23.8203 11.1103C23.0511 9.95918 21.9579 9.06197 20.6788 8.53216C19.3997 8.00234 17.9922 7.86372 16.6344 8.13382C15.2765 8.40391 14.0292 9.0706 13.0503 10.0496C12.0713 11.0285 11.4046 12.2758 11.1345 13.6337C10.8644 14.9915 11.003 16.399 11.5328 17.6781C12.0627 18.9572 12.9599 20.0504 14.111 20.8196C15.2622 21.5888 16.6155 21.9993 18 21.9993C19.8565 21.9993 21.637 21.2618 22.9497 19.9491C24.2625 18.6363 25 16.8558 25 14.9993ZM31.88 25.9993C33.1095 26.9508 34.1155 28.1602 34.8273 29.5423C35.5392 30.9245 35.9394 32.4458 36 33.9993V37.9993H44V33.9993C44 33.9993 44 26.7393 31.88 25.9993ZM30 7.99931C28.6234 7.99165 27.277 8.40322 26.14 9.17931C27.3549 10.8768 28.0081 12.9119 28.0081 14.9993C28.0081 17.0867 27.3549 19.1218 26.14 20.8193C27.277 21.5954 28.6234 22.007 30 21.9993C31.8565 21.9993 33.637 21.2618 34.9497 19.9491C36.2625 18.6363 37 16.8558 37 14.9993C37 13.1428 36.2625 11.3623 34.9497 10.0496C33.637 8.73681 31.8565 7.99931 30 7.99931Z" fill="black"></path></svg>