<svg xmlns="http://www.w3.org/2000/svg" width="31" height="31" viewBox="0 0 31 31" fill="none"><path d="M15.4998 5.16671C18.3415 5.16671 20.6665 7.49171 20.6665 10.3334C20.6665 13.0459 17.954 17.4375 15.4998 20.5375C13.0457 17.3084 10.3332 13.0459 10.3332 10.3334C10.3332 7.49171 12.6582 5.16671 15.4998 5.16671ZM15.4998 2.58337C11.2373 2.58337 7.74984 6.07087 7.74984 10.3334C7.74984 16.1459 15.4998 24.5417 15.4998 24.5417C15.4998 24.5417 23.2498 16.0167 23.2498 10.3334C23.2498 6.07087 19.7623 2.58337 15.4998 2.58337ZM15.4998 7.75004C14.079 7.75004 12.9165 8.91254 12.9165 10.3334C12.9165 11.7542 14.079 12.9167 15.4998 12.9167C16.9207 12.9167 18.0832 11.7542 18.0832 10.3334C18.0832 8.91254 16.9207 7.75004 15.4998 7.75004ZM25.8332 24.5417C25.8332 27.3834 21.1832 29.7084 15.4998 29.7084C9.8165 29.7084 5.1665 27.3834 5.1665 24.5417C5.1665 22.8625 6.7165 21.4417 9.17067 20.4084L9.94567 21.5709C8.654 22.2167 7.74984 22.9917 7.74984 23.8959C7.74984 25.7042 11.2373 27.125 15.4998 27.125C19.7623 27.125 23.2498 25.7042 23.2498 23.8959C23.2498 22.9917 22.3457 22.2167 20.9248 21.5709L21.6998 20.4084C24.2832 21.4417 25.8332 22.8625 25.8332 24.5417Z" fill="black"></path></svg>