<svg xmlns="http://www.w3.org/2000/svg" width="31" height="31" viewBox="0 0 31 31" fill="none"><g clip-path="url(#clip0_46_539)"><path d="M15.5 3.87488C9.63583 3.87488 4.31417 6.17404 0.374583 9.90696C0.142083 10.1395 0 10.4624 0 10.824C0 11.1857 0.142083 11.5086 0.374583 11.7411L3.57792 14.9445C3.81042 15.177 4.13333 15.319 4.52083 15.319C4.84375 15.319 5.16667 15.177 5.39917 14.9574C6.41958 14.0015 7.58208 13.2007 8.835 12.5678C9.26125 12.3611 9.55833 11.922 9.55833 11.4053V7.40113C11.4312 6.78113 13.4204 6.45821 15.5 6.45821C17.5537 6.45821 19.5558 6.78113 21.4287 7.38821V11.3924C21.4287 11.8961 21.7258 12.3482 22.1521 12.5549C23.4179 13.1878 24.5417 14.0015 25.6008 14.9445C25.8333 15.177 26.1562 15.3061 26.4792 15.3061C26.8667 15.3061 27.1896 15.164 27.4221 14.9315L30.6254 11.7282C30.8579 11.4957 31 11.1728 31 10.8111C31 10.4495 30.845 10.1395 30.6125 9.90696C26.6729 6.17404 21.3512 3.87488 15.5 3.87488ZM11.625 9.04154V12.9165C11.625 12.9165 3.875 19.3749 3.875 23.2499V28.4165H27.125V23.2499C27.125 19.3749 19.375 12.9165 19.375 12.9165V9.04154H16.7917V11.6249H14.2083V9.04154H11.625ZM15.5 15.4999C16.8703 15.4999 18.1844 16.0442 19.1534 17.0132C20.1223 17.9821 20.6667 19.2963 20.6667 20.6665C20.6667 22.0368 20.1223 23.351 19.1534 24.3199C18.1844 25.2889 16.8703 25.8332 15.5 25.8332C14.1297 25.8332 12.8156 25.2889 11.8466 24.3199C10.8777 23.351 10.3333 22.0368 10.3333 20.6665C10.3333 19.2963 10.8777 17.9821 11.8466 17.0132C12.8156 16.0442 14.1297 15.4999 15.5 15.4999ZM15.5 17.4374C14.6436 17.4374 13.8222 17.7776 13.2166 18.3832C12.611 18.9888 12.2708 19.8101 12.2708 20.6665C12.2708 21.523 12.611 22.3443 13.2166 22.9499C13.8222 23.5555 14.6436 23.8957 15.5 23.8957C16.3564 23.8957 17.1778 23.5555 17.7834 22.9499C18.389 22.3443 18.7292 21.523 18.7292 20.6665C18.7292 19.8101 18.389 18.9888 17.7834 18.3832C17.1778 17.7776 16.3564 17.4374 15.5 17.4374Z" fill="black"></path></g><defs><clipPath id="clip0_46_539"><rect width="31" height="31" fill="white"></rect></clipPath></defs></svg>