<svg xmlns="http://www.w3.org/2000/svg" width="28" height="28" viewBox="0 0 28 28" fill="none"><path d="M13.9995 27.7479C13.668 27.7479 13.35 27.6162 13.1156 27.3818C12.8812 27.1474 12.7495 26.8294 12.7495 26.4979V22.7479H7.74951C7.08647 22.7479 6.45058 22.4845 5.98174 22.0157C5.5129 21.5468 5.24951 20.911 5.24951 20.2479V7.74792C5.24951 7.08488 5.5129 6.449 5.98174 5.98016C6.45058 5.51132 7.08647 5.24792 7.74951 5.24792H25.2495C25.9125 5.24792 26.5484 5.51132 27.0173 5.98016C27.4861 6.449 27.7495 7.08488 27.7495 7.74792V20.2479C27.7495 20.911 27.4861 21.5468 27.0173 22.0157C26.5484 22.4845 25.9125 22.7479 25.2495 22.7479H20.1245L15.4995 27.3854C15.2495 27.6104 14.9495 27.7479 14.6245 27.7479H13.9995ZM15.2495 20.2479V24.0979L19.0995 20.2479H25.2495V7.74792H7.74951V20.2479H15.2495ZM2.74951 17.7479H0.249512V2.74792C0.249512 2.08488 0.512904 1.449 0.981745 0.980158C1.45059 0.511317 2.08647 0.247925 2.74951 0.247925H22.7495V2.74792H2.74951V17.7479ZM10.2495 10.2479H22.7495V12.7479H10.2495V10.2479ZM10.2495 15.2479H20.2495V17.7479H10.2495V15.2479Z" fill="black"></path></svg>